<svg width="51" height="24" viewBox="0 0 51 24" fill="none" xmlns="http://www.w3.org/2000/svg">
<path d="M13.0293 0.0761719H14.6113C18.9238 0.0761719 21.4961 1.53516 22.3281 4.45312C22.6094 5.41406 22.75 6.51562 22.75 7.75781V24H13.0293V0.0761719ZM0.267578 0.0761719H9.72461V24H0.267578V0.0761719ZM40.3984 0.0761719H50.1191V16.3184C50.1191 18.9082 49.5273 20.8125 48.3438 22.0312C47.043 23.3438 44.9219 24 41.9805 24H40.3984V0.0761719ZM26.8457 15.791H37.4805V24H36.3379C32.9746 24 30.5547 23.4609 29.0781 22.3828C27.5898 21.3164 26.8457 19.541 26.8457 17.0566V15.791Z" fill="white"/>
</svg>
