<svg width="488" height="60" viewBox="0 0 488 60" fill="none" xmlns="http://www.w3.org/2000/svg">
<path d="M45.9928 30.4255H54.7935V52.2877C48.7298 56.8659 39.7461 60 31.5554 60C13.8687 60 0.110474 46.8666 0.110474 29.9173C0.110474 12.9681 14.0435 0 32.1533 0C40.6937 0 49.2341 3.22689 55.1391 8.30521L49.4252 15.6787C44.7047 11.3884 38.5555 8.97437 32.1533 8.89815C19.9364 8.89815 10.3834 18.1351 10.3834 29.9133C10.3834 41.7761 20.0381 51.0131 32.259 51.0131C36.7041 51.0131 41.7429 49.4884 46.0131 46.9472L45.9928 30.4255Z" fill="white"/>
<path d="M135.181 29.9173C135.181 46.8585 121.434 60 103.644 60C85.8543 60 72.1479 46.8585 72.1479 29.9173C72.1479 12.8834 85.8947 0 103.664 0C121.434 0 135.181 12.9761 135.181 29.9173ZM82.3448 29.9173C82.3448 41.6955 92.1131 51.0171 103.749 51.0171C106.529 51.0246 109.283 50.4839 111.852 49.4263C114.422 48.3686 116.757 46.8147 118.722 44.854C120.688 42.8933 122.246 40.5643 123.307 38.001C124.368 35.4376 124.91 32.6905 124.903 29.9173C124.903 18.1351 115.39 8.98286 103.749 8.98286C92.0282 8.98689 82.3448 18.1392 82.3448 29.9173V29.9173Z" fill="white"/>
<path d="M156.142 0.00815957L174.788 48.7727L193.602 0H204.217L179.791 60H169.263L145.186 0.00815957H156.142Z" fill="white"/>
<path d="M262.236 0V9.08547H230.139V25.2859H258.88V34.3714H230.143V50.9145H263.248V60H220.225V0H262.236Z" fill="white"/>
<path d="M293.993 0L325.53 43.1142V0H335.285V60H325.53L294.181 16.9715V60H284.258V0H293.993Z" fill="white"/>
<path d="M415.327 30C415.327 47.3154 402.356 60 384.38 60H360.298V0H384.634C402.448 0 415.327 12.603 415.327 30ZM405.237 30.0857C405.237 17.8458 396.165 9.08201 384.465 9.08201H370.303V50.918H384.888C396.419 50.918 405.237 42.2603 405.237 30.0898V30.0857Z" fill="white"/>
<path d="M471.097 46.4595H441.347L435.698 60H425.332L451.376 0H461.573L487.364 60H476.745L471.097 46.4595ZM467.306 37.4597L456.182 10.8234L445.053 37.4801L467.306 37.4597Z" fill="white"/>
</svg>
