<svg width="26" height="12" viewBox="0 0 26 12" fill="none" xmlns="http://www.w3.org/2000/svg">
<path d="M6.51465 0.0380859H7.30566C9.46191 0.0380859 10.748 0.767578 11.1641 2.22656C11.3047 2.70703 11.375 3.25781 11.375 3.87891V12H6.51465V0.0380859ZM0.133789 0.0380859H4.8623V12H0.133789V0.0380859ZM20.1992 0.0380859H25.0596V8.15918C25.0596 9.4541 24.7637 10.4062 24.1719 11.0156C23.5215 11.6719 22.4609 12 20.9902 12H20.1992V0.0380859ZM13.4229 7.89551H18.7402V12H18.1689C16.4873 12 15.2773 11.7305 14.5391 11.1914C13.7949 10.6582 13.4229 9.77051 13.4229 8.52832V7.89551Z" fill="#FFEFEF"/>
</svg>
